<svg xmlns="http://www.w3.org/2000/svg" viewBox="0 0 1200 180" width="1200" height="180" role="img" aria-label="Decorative banner: Miku-inspired teal gradient, stars, sparkles, and soft waves (no character art)">
  <defs>
    <linearGradient id="bg" x1="0%" y1="0%" x2="100%" y2="100%">
      <stop offset="0%" style="stop-color:#E4FAF8"/>
      <stop offset="28%" style="stop-color:#FAFEFF"/>
      <stop offset="52%" style="stop-color:#FFFFFF"/>
      <stop offset="78%" style="stop-color:#F3FFFD"/>
      <stop offset="100%" style="stop-color:#EEF9FF"/>
    </linearGradient>
    <linearGradient id="wave" x1="0%" y1="0%" x2="100%" y2="0%">
      <stop offset="0%" style="stop-color:#39C5BB;stop-opacity:0.32"/>
      <stop offset="50%" style="stop-color:#39C5BB;stop-opacity:0.92"/>
      <stop offset="100%" style="stop-color:#39C5BB;stop-opacity:0.32"/>
    </linearGradient>
    <radialGradient id="bloom" cx="16%" cy="12%" r="52%">
      <stop offset="0%" style="stop-color:#E8489F;stop-opacity:0.11"/>
      <stop offset="40%" style="stop-color:#39C5BB;stop-opacity:0.07"/>
      <stop offset="100%" style="stop-color:#FFFFFF;stop-opacity:0"/>
    </radialGradient>
    <radialGradient id="bloom2" cx="88%" cy="20%" r="42%">
      <stop offset="0%" style="stop-color:#39C5BB;stop-opacity:0.11"/>
      <stop offset="100%" style="stop-color:#FFFFFF;stop-opacity:0"/>
    </radialGradient>
    <radialGradient id="bloom3" cx="50%" cy="-5%" r="55%">
      <stop offset="0%" style="stop-color:#FFFFFF;stop-opacity:0.85"/>
      <stop offset="45%" style="stop-color:#D4F7F3;stop-opacity:0.2"/>
      <stop offset="100%" style="stop-color:#FFFFFF;stop-opacity:0"/>
    </radialGradient>
  </defs>
  <rect width="1200" height="180" fill="url(#bg)"/>
  <ellipse cx="600" cy="0" rx="520" ry="120" fill="url(#bloom3)"/>
  <ellipse cx="200" cy="40" rx="150" ry="78" fill="url(#bloom)"/>
  <ellipse cx="1060" cy="50" rx="130" ry="68" fill="url(#bloom2)"/>
  <!-- soft bubbles -->
  <circle cx="360" cy="72" r="22" fill="#39C5BB" opacity="0.06"/>
  <circle cx="720" cy="48" r="18" fill="#E8489F" opacity="0.05"/>
  <circle cx="980" cy="78" r="16" fill="#39C5BB" opacity="0.055"/>
  <!-- teal stars -->
  <g fill="#39C5BB" opacity="0.36">
    <path d="M64 30l2.1 6.4h6.7l-5.4 3.9 2.1 6.4-5.5-4-5.5 4 2.1-6.4-5.4-3.9h6.7z"/>
    <path d="M92 54l1.3 3.9h4.2l-3.4 2.4 1.3 3.9-3.4-2.5-3.4 2.5 1.3-3.9-3.4-2.4h4.2z" opacity="0.78"/>
    <path d="M1034 22l1.9 5.7h6.1l-5 3.5 1.9 5.7-5-3.6-5 3.6 1.9-5.7-5-3.5h6.1z"/>
    <path d="M400 20l1.1 3.3h3.5l-2.8 2 1.1 3.3-2.8-2.1-2.8 2.1 1.1-3.3-2.8-2h3.5z" opacity="0.5"/>
    <path d="M652 36l1.6 4.8h5l-4.1 2.9 1.6 4.8-4.1-3-4.1 3 1.6-4.8-4.1-2.9h5z" opacity="0.48"/>
    <path d="M240 26l0.9 2.7h2.9l-2.3 1.7 0.9 2.7-2.3-1.7-2.3 1.7 0.9-2.7-2.3-1.7h2.9z" opacity="0.62"/>
    <path d="M540 58l0.8 2.4h2.6l-2.1 1.5 0.8 2.4-2.1-1.5-2.1 1.5 0.8-2.4-2.1-1.5h2.6z" opacity="0.55"/>
    <path d="M820 24l1.2 3.6h3.8l-3.1 2.2 1.2 3.6-3.1-2.3-3.1 2.3 1.2-3.6-3.1-2.2h3.8z" opacity="0.52"/>
  </g>
  <!-- pink stars + dots -->
  <g fill="#E8489F" opacity="0.3">
    <path d="M156 42l1 3h3.2l-2.6 1.9 1 3-2.6-1.9-2.6 1.9 1-3-2.6-1.9h3.2z"/>
    <path d="M500 28l0.85 2.5h2.7l-2.2 1.6 0.85 2.5-2.2-1.6-2.2 1.6 0.85-2.5-2.2-1.6h2.7z" opacity="0.72"/>
    <path d="M900 34l1.1 3.3h3.5l-2.8 2 1.1 3.3-2.8-2.1-2.8 2.1 1.1-3.3-2.8-2h3.5z" opacity="0.55"/>
    <circle cx="292" cy="32" r="2.6"/>
    <circle cx="448" cy="48" r="2"/>
    <circle cx="748" cy="30" r="2.4"/>
    <circle cx="1120" cy="40" r="2.2"/>
  </g>
  <!-- spark dots -->
  <g fill="#39C5BB" opacity="0.42">
    <circle cx="188" cy="68" r="1.3"/>
    <circle cx="332" cy="22" r="1.1"/>
    <circle cx="600" cy="38" r="1.35"/>
    <circle cx="688" cy="62" r="1.15"/>
    <circle cx="868" cy="54" r="1.25"/>
    <circle cx="1010" cy="66" r="1.2"/>
  </g>
  <g fill="#E8489F" opacity="0.22">
    <circle cx="472" cy="66" r="1"/>
    <circle cx="592" cy="18" r="0.9"/>
    <circle cx="1058" cy="62" r="1"/>
  </g>
  <!-- tiny + sparkles -->
  <g stroke="#39C5BB" stroke-width="1.2" stroke-linecap="round" opacity="0.35">
    <path d="M128 72v5M125.5 74.5h5"/>
    <path d="M960 52v4M958 54h4"/>
    <path d="M380 78v4M378 80h4" opacity="0.5"/>
  </g>
  <!-- abstract music notes -->
  <g opacity="0.44">
    <circle cx="1140" cy="92" r="5.5" fill="#39C5BB"/>
    <rect x="1145" y="50" width="3" height="46" rx="1" fill="#39C5BB"/>
    <path d="M1145 50 Q 1160 46 1168 56 Q 1160 60 1148 58" fill="none" stroke="#39C5BB" stroke-width="2.5" stroke-linecap="round"/>
  </g>
  <g opacity="0.32">
    <circle cx="48" cy="88" r="4" fill="#E8489F"/>
    <rect x="52" y="58" width="2.5" height="34" rx="1" fill="#E8489F"/>
  </g>
  <path d="M0 122 Q 150 88 300 116 T 600 114 T 900 118 T 1200 108 L 1200 180 L 0 180 Z" fill="url(#wave)" opacity="0.2"/>
  <path d="M0 132 Q 200 102 400 124 T 800 122 T 1200 114" fill="none" stroke="#39C5BB" stroke-width="2.5" stroke-linecap="round" opacity="0.88"/>
  <path d="M0 142 Q 180 124 360 134 T 720 132 T 1200 124" fill="none" stroke="#E8489F" stroke-width="1.15" stroke-linecap="round" opacity="0.26"/>
  <path d="M0 150 Q 220 140 440 146 T 880 144 T 1200 136" fill="none" stroke="#586069" stroke-width="0.85" stroke-linecap="round" opacity="0.24"/>
  <circle cx="1096" cy="40" r="4.2" fill="#E8489F" opacity="0.48"/>
  <circle cx="1120" cy="54" r="2.7" fill="#39C5BB" opacity="0.44"/>
</svg>
