<svg xmlns="http://www.w3.org/2000/svg" viewBox="0 0 800 18" width="800" height="18" preserveAspectRatio="none" role="img" aria-hidden="true">
  <defs>
    <linearGradient id="line" x1="0%" y1="0%" x2="100%" y2="0%">
      <stop offset="0%" style="stop-color:#39C5BB;stop-opacity:0.2"/>
      <stop offset="32%" style="stop-color:#39C5BB;stop-opacity:0.95"/>
      <stop offset="50%" style="stop-color:#E8489F;stop-opacity:0.8"/>
      <stop offset="68%" style="stop-color:#39C5BB;stop-opacity:0.95"/>
      <stop offset="100%" style="stop-color:#39C5BB;stop-opacity:0.2"/>
    </linearGradient>
  </defs>
  <path d="M0 9 Q 90 4 180 9 T 360 9 T 540 9 T 720 9 T 800 9" fill="none" stroke="url(#line)" stroke-width="2.3" stroke-linecap="round"/>
  <path d="M0 11 Q 100 14 200 11 T 400 11 T 600 11 T 800 11" fill="none" stroke="#39C5BB" stroke-width="0.9" stroke-linecap="round" opacity="0.35"/>
  <path d="M12 5l1.2 3.6h3.8l-3 2.2 1.2 3.6-3-2.2-3 2.2 1.2-3.6-3-2.2h3.8z" fill="#39C5BB" opacity="0.55"/>
  <path d="M778 5l1.2 3.6h3.8l-3 2.2 1.2 3.6-3-2.2-3 2.2 1.2-3.6-3-2.2h3.8z" fill="#E8489F" opacity="0.45"/>
  <circle cx="400" cy="9" r="2" fill="#E8489F" opacity="0.35"/>
</svg>
