<svg xmlns="http://www.w3.org/2000/svg" viewBox="0 0 280 28" width="280" height="28" role="img" aria-hidden="true">
  <g fill="#39C5BB" opacity="0.55">
    <path d="M24 14l1.8 5.4h5.8l-4.7 3.4 1.8 5.4-4.7-3.4-4.7 3.4 1.8-5.4-4.7-3.4h5.8z"/>
    <path d="M140 12l1.4 4.2h4.5l-3.6 2.6 1.4 4.2-3.6-2.6-3.6 2.6 1.4-4.2-3.6-2.6h4.5z" opacity="0.75"/>
    <path d="M256 14l1.8 5.4h5.8l-4.7 3.4 1.8 5.4-4.7-3.4-4.7 3.4 1.8-5.4-4.7-3.4h5.8z"/>
  </g>
  <g fill="#E8489F" opacity="0.45">
    <circle cx="82" cy="14" r="3"/>
    <circle cx="198" cy="14" r="2.5"/>
  </g>
  <path d="M48 14h184" stroke="#39C5BB" stroke-width="0.75" stroke-linecap="round" stroke-dasharray="3 7" opacity="0.35"/>
</svg>
